<?xml version="1.0" encoding="utf-8"?>
<!-- Generator: Adobe Illustrator 24.3.0, SVG Export Plug-In . SVG Version: 6.00 Build 0)  -->
<svg version="1.1" id="Layer_1" xmlns="http://www.w3.org/2000/svg" xmlns:xlink="http://www.w3.org/1999/xlink" x="0px" y="0px"
	 viewBox="0 0 217.6 263.4" style="enable-background:new 0 0 217.6 263.4;" xml:space="preserve">
<style type="text/css">
	.st0{fill:#C74A5D;}
	.st1{fill:#86A751;}
</style>
<g>
	<path class="st0" d="M192.8,82.9v-4.7h19.7c3.3,0,5.1,2.6,5.1,5.1v175c0,3.3-2.6,5.1-5.1,5.1H5.1c-3.3,0-5.1-2.6-5.1-5.1v-175
		c0-3.3,2.6-5.1,5.1-5.1h22l0,4.8l-21,0c-0.1,0-0.8-0.1-1.2,0.3c-0.3,0.4-0.2,0.9-0.2,1.1v172.9c0,0.1-0.1,0.8,0.3,1.2
		c0.3,0.3,1,0.2,1.1,0.2h205.3c0.1,0,0.9,0,1.2-0.4c0.3-0.4,0.2-0.8,0.2-1.1V84.3c0-0.4,0-0.8-0.3-1.1c-0.3-0.4-1-0.3-1.2-0.3H192.8
		z"/>
	<path class="st0" d="M27.2,102c-1,0-1.7,0.2-2.2,0.4c-0.7,0.4-1,0.9-1,1.5c0,0.9,0.8,1.4,1.1,1.6c0.4,0.2,1.1,0.5,2.2,0.7
		c1.2,0.3,2.4,0.6,3.3,1.2c0.9,0.6,1.5,1.4,1.5,2.6c0,0.9-0.3,1.7-0.9,2.3c-0.8,0.9-2.1,1.4-4,1.4c-1.5,0-3.7-0.6-4.8-1.9
		c-0.2-0.2-0.2-0.4,0-0.5l0.5-0.4c0.3-0.2,0.3-0.1,0.4,0.1c1.1,1,2.4,1.5,3.9,1.5c1,0,1.7-0.2,2.3-0.5c0.9-0.5,1.3-1.3,1.3-1.9
		c0-0.7-0.3-1.2-0.9-1.6c-0.6-0.5-1.6-0.7-2.7-1c-1.2-0.3-2.2-0.6-2.8-0.9c-0.8-0.4-1.7-1.2-1.7-2.6c0-1,0.6-2,1.6-2.5
		c0.7-0.4,1.7-0.6,2.8-0.6c1.6,0,3.3,0.6,4,0.9c0.2,0.1,0.2,0.3,0.2,0.4l-0.2,0.6c-0.1,0.2-0.3,0.2-0.5,0.1
		C30.4,102.6,28.9,102,27.2,102"/>
	<path class="st0" d="M44.1,101.1c0.1,0,0.1,0.1,0.1,0.1l-0.1,0.9c0,0.1-0.1,0.1-0.2,0.1h-7.4c-0.1,0-0.2,0.2-0.2,0.3v3.7
		c0,0.1,0,0.3,0.2,0.3h5.4c0.1,0,0.1,0,0.1,0.1v0.9c0,0.1,0,0.1-0.1,0.1h-5.4c-0.1,0-0.2,0-0.2,0.1v4.1c0,0.2,0,0.2,0.2,0.2h7.4
		c0.1,0,0.2,0.1,0.2,0.2l0.1,0.7c0,0.2,0,0.3-0.2,0.3h-8.7c-0.2,0-0.2-0.2-0.2-0.3v-11.6c0-0.2,0.1-0.3,0.3-0.3H44.1z"/>
	<path class="st0" d="M56.7,104.3c-0.1,0-0.2-0.1-0.2-0.2c-0.3-1-1.5-2.2-4-2.2c-3.2,0-5.2,2.3-5.2,5.4c0,3.5,2.8,5.2,5.3,5.2
		c2.3,0,3.8-1.4,4.3-2.4c0-0.1,0.1-0.2,0.3-0.1l0.8,0.1c0.1,0,0.2,0.2,0.1,0.3c-0.7,1.7-3,3.2-5.5,3.2c-2.9,0-6.6-1.8-6.6-6.3
		c0-4,2.8-6.6,6.5-6.6c3,0,4.9,1.6,5.1,3c0,0,0,0.2-0.1,0.3L56.7,104.3z"/>
	<path class="st0" d="M61.5,107.2c0,2.8,2.4,5.2,5.4,5.2c3,0,5.4-2.3,5.4-5.2c0-2.8-2.4-5.2-5.4-5.2C63.9,102,61.5,104.4,61.5,107.2
		 M73.6,107.2c0,3.6-3,6.4-6.7,6.4c-3.7,0-6.7-2.9-6.7-6.4c0-3.6,3-6.4,6.7-6.4C70.6,100.8,73.6,103.6,73.6,107.2"/>
	<path class="st0" d="M76.7,101.5c0-0.3,0.1-0.4,0.2-0.4l0.6-0.1c0.2,0,0.2-0.1,0.4,0.2l7.9,9.6C86,111,86,111,86.1,111
		c0.1,0,0.1,0,0.1-0.2v-9.5c0-0.2,0-0.2,0.3-0.2h0.8c0.2,0,0.2,0.1,0.2,0.3v11.8c0,0.3-0.1,0.3-0.3,0.3l-0.6,0c-0.2,0-0.2,0-0.4-0.2
		l-8-9.6c-0.1-0.1-0.2-0.2-0.2-0.2c-0.1,0-0.1,0.1-0.1,0.3v9.6c0,0.1-0.1,0.2-0.2,0.2h-0.9c-0.1,0-0.2-0.1-0.2-0.2V101.5z"/>
	<path class="st0" d="M97.4,112.2c1.7,0,4.2-1.1,4.2-5.1c0-3.7-2.2-4.8-4.2-4.8H93c-0.2,0-0.3,0-0.3,0.3v9.3c0,0.2,0.1,0.2,0.2,0.2
		H97.4z M91.5,113v-11.4c0-0.3,0.2-0.5,0.4-0.5h5.5c2.5,0,5.4,1.5,5.4,6c0,4.7-3.1,6.3-5.4,6.3h-5.6C91.6,113.4,91.5,113.2,91.5,113
		"/>
	<path class="st0" d="M112,101.3c0-0.1,0-0.2,0.1-0.2h1c0.1,0,0.1,0.1,0.1,0.2v5.1c0,0.1,0,0.2,0.2,0.2h8.5c0.1,0,0.1-0.1,0.1-0.2
		v-5.1c0-0.2,0-0.2,0.2-0.2h0.9c0.1,0,0.2,0,0.2,0.2v11.9c0,0.1-0.1,0.2-0.2,0.2h-1c-0.1,0-0.1-0.1-0.1-0.2V108c0-0.1,0-0.2-0.1-0.2
		h-8.5c-0.2,0-0.2,0-0.2,0.2v5.2c0,0.1,0,0.2-0.2,0.2h-0.9c-0.1,0-0.2,0-0.2-0.2V101.3z"/>
	<path class="st0" d="M131.9,103l-2.9,6.1c0,0.1-0.1,0.2,0.1,0.2h5.7c0.2,0,0.2-0.1,0.1-0.3l-2.8-6c0-0.1,0-0.1-0.1-0.1
		C132,102.8,132,102.9,131.9,103 M131.4,101.3c0.1-0.1,0.1-0.2,0.2-0.2h0.9c0.1,0,0.2,0.1,0.2,0.2l5.7,11.9c0,0.1,0,0.1-0.1,0.1
		h-1.1c-0.2,0-0.2-0.1-0.3-0.2l-1.2-2.6c0-0.1-0.1-0.2-0.2-0.2l-6.9,0c-0.1,0-0.2,0.1-0.2,0.2l-1.1,2.4c-0.1,0.1-0.1,0.2-0.2,0.4
		c0,0.1-0.2,0.1-0.4,0.1h-1c0,0-0.1,0,0-0.1L131.4,101.3z"/>
	<path class="st0" d="M146.2,107c1.6,0,3-0.8,3-2.5c0-1.1-0.8-2.3-2.6-2.3h-4.5c-0.1,0-0.2,0.1-0.2,0.1v4.5c0,0.1,0.1,0.1,0.2,0.1
		H146.2z M146.6,101.1c2.5,0,4,1.6,4,3.5c0,2.2-2,3.5-4.1,3.5h-1.4c-0.1,0-0.2,0-0.1,0.1c0.2,0.3,0.7,0.6,1,1c1.1,1,2.3,2.1,3.7,2.8
		c0.4,0.2,0.8,0.4,1.3,0.4c0.2,0,0.1,0.2,0.1,0.3l-0.4,0.7c-0.1,0.1-0.1,0.2-0.3,0.1c-0.6-0.1-1.2-0.4-1.8-0.8
		c-1.7-1.1-3.1-2.4-4.2-3.5c-0.5-0.4-1-0.9-1-0.9c-0.4-0.4-0.5-0.4-1.1-0.4c-0.2,0-0.2,0.1-0.2,0.2v4.9c0,0.2,0,0.2-0.2,0.2h-0.9
		c-0.1,0-0.2-0.1-0.2-0.2v-11.8c0-0.2,0-0.2,0.2-0.2H146.6z"/>
	<path class="st0" d="M158,111.2c0.1,0,0.2-0.2,0.2-0.3l3.9-9.6c0.1-0.1,0.1-0.2,0.2-0.2l1.1-0.1c0.2,0,0.2,0,0.1,0.2l-4.9,11.6
		c-0.1,0.2-0.2,0.5-0.4,0.5h-0.6c-0.2,0-0.3-0.3-0.4-0.5l-4.8-11.5c-0.1-0.2-0.1-0.4,0.1-0.3l1.1,0.1c0.2,0,0.2,0.1,0.3,0.3l3.9,9.5
		C157.8,111,157.9,111.1,158,111.2"/>
	<path class="st0" d="M175.2,101.1c0.1,0,0.1,0.1,0.1,0.1l-0.1,0.9c0,0.1-0.1,0.1-0.2,0.1h-7.4c-0.1,0-0.2,0.2-0.2,0.3v3.7
		c0,0.1,0,0.3,0.2,0.3h5.4c0.1,0,0.1,0,0.1,0.1v0.9c0,0.1,0,0.1-0.1,0.1h-5.4c-0.1,0-0.2,0-0.2,0.1v4.1c0,0.2,0,0.2,0.2,0.2h7.4
		c0.1,0,0.2,0.1,0.2,0.2l0.1,0.7c0,0.2,0,0.3-0.2,0.3h-8.7c-0.2,0-0.2-0.2-0.2-0.3v-11.6c0-0.2,0.1-0.3,0.3-0.3H175.2z"/>
	<path class="st0" d="M182.2,102c-1,0-1.7,0.2-2.2,0.4c-0.7,0.4-1,0.9-1,1.5c0,0.9,0.8,1.4,1.1,1.6c0.4,0.2,1.1,0.5,2.2,0.7
		c1.2,0.3,2.4,0.6,3.3,1.2c0.9,0.6,1.5,1.4,1.5,2.6c0,0.9-0.3,1.7-0.9,2.3c-0.8,0.9-2.1,1.4-4,1.4c-1.5,0-3.7-0.6-4.8-1.9
		c-0.2-0.2-0.2-0.4,0-0.5l0.5-0.4c0.3-0.2,0.3-0.1,0.4,0.1c1.1,1,2.4,1.5,3.9,1.5c1,0,1.7-0.2,2.3-0.5c0.9-0.5,1.3-1.3,1.3-1.9
		c0-0.7-0.3-1.2-0.9-1.6c-0.6-0.5-1.6-0.7-2.7-1c-1.2-0.3-2.2-0.6-2.8-0.9c-0.8-0.4-1.7-1.2-1.7-2.6c0-1,0.6-2,1.6-2.5
		c0.7-0.4,1.7-0.6,2.8-0.6c1.6,0,3.3,0.6,4,0.9c0.2,0.1,0.2,0.3,0.2,0.4l-0.2,0.6c-0.1,0.2-0.3,0.2-0.5,0.1
		C185.3,102.6,183.9,102,182.2,102"/>
	<path class="st0" d="M192.2,102.5c0-0.1-0.1-0.2-0.2-0.2h-3c-0.2,0-0.2,0-0.2-0.2v-0.8c0-0.1,0-0.1,0.1-0.1h7.6
		c0.1,0,0.2,0,0.2,0.1v0.9c0,0.1,0,0.1-0.2,0.1h-2.9c-0.2,0-0.2,0.1-0.2,0.2v10.7c0,0.2,0,0.2-0.2,0.2h-0.9c-0.1,0-0.2-0.1-0.2-0.2
		V102.5z"/>
	<path class="st0" d="M23.3,121.9c0-0.3,0.1-0.4,0.2-0.4l0.6-0.1c0.2,0,0.2-0.1,0.4,0.2l7.9,9.6c0.1,0.1,0.2,0.2,0.3,0.2
		c0.1,0,0.1,0,0.1-0.2v-9.5c0-0.2,0-0.2,0.3-0.2h0.8c0.2,0,0.2,0.1,0.2,0.3v11.8c0,0.3-0.1,0.3-0.3,0.3l-0.6,0c-0.2,0-0.2,0-0.4-0.2
		l-8-9.6c-0.1-0.1-0.2-0.2-0.2-0.2c-0.1,0-0.1,0.1-0.1,0.3v9.6c0,0.1-0.1,0.2-0.2,0.2h-0.9c-0.1,0-0.2-0.1-0.2-0.2V121.9z"/>
	<path class="st0" d="M38.7,127.7c0,2.8,2.4,5.2,5.4,5.2c3,0,5.4-2.3,5.4-5.2c0-2.8-2.4-5.1-5.4-5.1
		C41.1,122.5,38.7,124.9,38.7,127.7 M50.8,127.7c0,3.6-3,6.4-6.7,6.4c-3.7,0-6.7-2.9-6.7-6.4c0-3.6,3-6.4,6.7-6.4
		C47.8,121.2,50.8,124.1,50.8,127.7"/>
	<path class="st0" d="M59.6,127.5c1.6,0,3-0.8,3-2.5c0-1.1-0.8-2.3-2.6-2.3h-4.5c-0.1,0-0.2,0.1-0.2,0.1v4.5c0,0.1,0.1,0.1,0.2,0.1
		H59.6z M59.9,121.6c2.5,0,4,1.6,4,3.5c0,2.2-2,3.5-4,3.5h-1.4c-0.1,0-0.2,0-0.1,0.1c0.2,0.3,0.7,0.6,1,1c1.1,1,2.3,2.1,3.7,2.8
		c0.4,0.2,0.8,0.4,1.3,0.4c0.2,0,0.1,0.2,0.1,0.3L64,134c-0.1,0.1-0.1,0.2-0.3,0.1c-0.6-0.1-1.2-0.4-1.8-0.8
		c-1.7-1.1-3.1-2.4-4.2-3.5c-0.5-0.4-1-0.9-1-0.9c-0.4-0.4-0.6-0.4-1.1-0.4c-0.2,0-0.2,0.1-0.2,0.2v4.9c0,0.2,0,0.2-0.2,0.2h-0.9
		c-0.1,0-0.2-0.1-0.2-0.2v-11.8c0-0.2,0-0.2,0.2-0.2H59.9z"/>
	<path class="st0" d="M69.5,122.9c0-0.1-0.1-0.2-0.2-0.2h-3c-0.2,0-0.2,0-0.2-0.2v-0.8c0-0.1,0-0.1,0.1-0.1h7.6c0.1,0,0.2,0,0.2,0.1
		v0.9c0,0.1,0,0.1-0.2,0.1h-2.9c-0.2,0-0.2,0.1-0.2,0.2v10.7c0,0.2,0,0.2-0.2,0.2h-0.9c-0.1,0-0.2-0.1-0.2-0.2V122.9z"/>
	<path class="st0" d="M77.2,121.7c0-0.1,0-0.2,0.1-0.2h1c0.1,0,0.1,0.1,0.1,0.2v5.1c0,0.1,0,0.2,0.2,0.2h8.5c0.1,0,0.1-0.1,0.1-0.2
		v-5.1c0-0.2,0-0.2,0.2-0.2h0.9c0.1,0,0.2,0,0.2,0.2v11.9c0,0.1-0.1,0.2-0.2,0.2h-1c-0.1,0-0.1-0.1-0.1-0.2v-5.1
		c0-0.1,0-0.2-0.1-0.2h-8.5c-0.2,0-0.2,0-0.2,0.2v5.2c0,0.1,0,0.2-0.2,0.2h-0.9c-0.1,0-0.2,0-0.2-0.2V121.7z"/>
	<path class="st0" d="M101.7,121.6c0.1,0,0.1,0.1,0.1,0.1l-0.1,0.9c0,0.1-0.1,0.1-0.2,0.1h-7.4c-0.1,0-0.2,0.2-0.2,0.3v3.7
		c0,0.1,0,0.3,0.2,0.3h5.4c0.1,0,0.1,0,0.1,0.1v0.9c0,0.1,0,0.1-0.1,0.1h-5.4c-0.1,0-0.2,0-0.2,0.1v4.1c0,0.2,0,0.2,0.2,0.2h7.4
		c0.1,0,0.2,0.1,0.2,0.2l0.1,0.7c0,0.2,0,0.3-0.2,0.3h-8.7c-0.2,0-0.2-0.2-0.2-0.3v-11.6c0-0.2,0.1-0.3,0.3-0.3H101.7z"/>
	<path class="st0" d="M110.4,127.5c1.6,0,3-0.8,3-2.5c0-1.1-0.8-2.3-2.6-2.3h-4.5c-0.1,0-0.2,0.1-0.2,0.1v4.5c0,0.1,0.1,0.1,0.2,0.1
		H110.4z M110.8,121.6c2.5,0,4,1.6,4,3.5c0,2.2-2,3.5-4,3.5h-1.4c-0.1,0-0.2,0-0.1,0.1c0.2,0.3,0.7,0.6,1,1c1.1,1,2.3,2.1,3.7,2.8
		c0.4,0.2,0.8,0.4,1.3,0.4c0.2,0,0.1,0.2,0.1,0.3l-0.4,0.7c-0.1,0.1-0.1,0.2-0.3,0.1c-0.6-0.1-1.2-0.4-1.8-0.8
		c-1.7-1.1-3.1-2.4-4.2-3.5c-0.5-0.4-1-0.9-1-0.9c-0.4-0.4-0.5-0.4-1.1-0.4c-0.2,0-0.2,0.1-0.2,0.2v4.9c0,0.2,0,0.2-0.2,0.2h-0.9
		c-0.1,0-0.2-0.1-0.2-0.2v-11.8c0-0.2,0-0.2,0.2-0.2H110.8z"/>
	<path class="st0" d="M118.2,121.9c0-0.3,0.1-0.4,0.2-0.4l0.6-0.1c0.2,0,0.2-0.1,0.4,0.2l7.9,9.6c0.1,0.1,0.2,0.2,0.3,0.2
		c0.1,0,0.1,0,0.1-0.2v-9.5c0-0.2,0-0.2,0.3-0.2h0.8c0.2,0,0.2,0.1,0.2,0.3v11.8c0,0.3-0.1,0.3-0.3,0.3l-0.6,0c-0.2,0-0.2,0-0.4-0.2
		l-8-9.6c-0.1-0.1-0.2-0.2-0.2-0.2c-0.1,0-0.1,0.1-0.1,0.3v9.6c0,0.1-0.1,0.2-0.2,0.2h-0.9c-0.1,0-0.2-0.1-0.2-0.2V121.9z"/>
	<path class="st0" d="M140.6,121.6c0.1,0,0.1,0.1,0.1,0.1v10.6c0,0.2,0,0.3,0.2,0.3h5.6c0.4,0,0.6-0.1,0.8-0.1c0.1,0,0.1,0,0.1,0.1
		l0.1,1c0,0.2,0,0.2-0.1,0.2h-0.9h-6.9c-0.1,0-0.2-0.1-0.2-0.2v-11.9c0-0.1,0-0.2,0.2-0.2H140.6z"/>
	<path class="st0" d="M154.9,123.5l-2.9,6.1c0,0.1-0.1,0.2,0.1,0.2h5.7c0.2,0,0.2-0.1,0.1-0.3l-2.8-6c0-0.1,0-0.1-0.1-0.1
		C154.9,123.3,154.9,123.4,154.9,123.5 M154.3,121.8c0.1-0.1,0.1-0.2,0.2-0.2h0.9c0.1,0,0.2,0.1,0.2,0.2l5.7,11.9
		c0,0.1,0,0.1-0.1,0.1h-1.1c-0.2,0-0.2-0.1-0.3-0.2l-1.2-2.6c0-0.1-0.1-0.2-0.2-0.2l-6.9,0c-0.1,0-0.2,0.1-0.2,0.2l-1.1,2.4
		c-0.1,0.1-0.1,0.2-0.2,0.4c0,0.1-0.2,0.1-0.4,0.1h-1c0,0-0.1,0,0-0.1L154.3,121.8z"/>
	<path class="st0" d="M165.4,128c0,0-0.2-0.1-0.2,0c0,0-0.1,0.1-0.1,0.1v5.5c0,0.3,0,0.2-0.2,0.2H164c-0.1,0-0.1,0-0.1-0.1v-12
		c0-0.1,0-0.1,0.1-0.1h1c0.2,0,0.2,0,0.2,0.2v4.6c0,0.1,0.1,0,0.1,0l5.2-4.2c0.5-0.5,0.5-0.6,0.6-0.6h1.5c0.2,0,0.2,0,0.2,0.1
		c0,0.1-0.2,0.2-0.2,0.2c0,0-5.4,4.4-6.2,5.1c-0.1,0-0.1,0.1,0,0.2c1,0.5,5,5.1,6.8,5.7c0.3,0.1,0.3,0.2,0.2,0.3l-0.1,0.8
		c0,0.2-0.1,0.2-0.3,0.1C170.4,133.4,166.7,128.5,165.4,128"/>
	<path class="st0" d="M184.9,121.6c0.1,0,0.1,0.1,0.1,0.1l-0.1,0.9c0,0.1-0.1,0.1-0.2,0.1h-7.4c-0.1,0-0.2,0.2-0.2,0.3v3.7
		c0,0.1,0,0.3,0.2,0.3h5.4c0.1,0,0.1,0,0.1,0.1v0.9c0,0.1,0,0.1-0.1,0.1h-5.4c-0.1,0-0.2,0-0.2,0.1v4.1c0,0.2,0,0.2,0.2,0.2h7.4
		c0.1,0,0.2,0.1,0.2,0.2l0.1,0.7c0,0.2,0,0.3-0.2,0.3h-8.7c-0.2,0-0.2-0.2-0.2-0.3v-11.6c0-0.2,0.1-0.3,0.3-0.3H184.9z"/>
	<path class="st0" d="M192.1,122.4c-1,0-1.7,0.2-2.2,0.4c-0.7,0.4-1,0.9-1,1.5c0,0.9,0.8,1.4,1.1,1.6c0.4,0.2,1.1,0.5,2.2,0.7
		c1.2,0.3,2.4,0.6,3.3,1.2c0.9,0.6,1.5,1.4,1.5,2.6c0,0.9-0.3,1.7-0.9,2.3c-0.8,0.9-2.1,1.4-4,1.4c-1.5,0-3.7-0.6-4.8-1.9
		c-0.2-0.2-0.2-0.4,0-0.5l0.5-0.4c0.3-0.2,0.3-0.1,0.4,0.1c1.1,1,2.4,1.5,3.9,1.5c1,0,1.7-0.2,2.3-0.5c0.9-0.5,1.3-1.3,1.3-1.9
		c0-0.7-0.3-1.2-0.9-1.6c-0.7-0.5-1.6-0.7-2.7-1c-1.2-0.3-2.2-0.6-2.8-0.9c-0.8-0.4-1.7-1.2-1.7-2.6c0-1,0.6-2,1.6-2.5
		c0.7-0.4,1.7-0.6,2.8-0.6c1.6,0,3.3,0.6,4,0.9c0.2,0.1,0.2,0.3,0.2,0.4l-0.2,0.6c-0.1,0.2-0.3,0.2-0.5,0.1
		C195.2,123.1,193.7,122.4,192.1,122.4"/>
</g>
<polygon class="st1" points="32.2,190.9 22,190.9 22,145.1 55.3,145.1 55.3,154.8 32.2,154.8 32.2,163.3 52.1,163.3 52.1,173 
	32.2,173 "/>
<g>
	<path class="st1" d="M168.2,181.3h7c8.7,0,10.5-7.2,10.5-13.3c0-8.7-3.5-13.2-10.5-13.2h-7V181.3z M175.2,190.9h-17.2v-45.9h17.2
		c12.8,0,20.8,8.8,20.8,22.9C195.9,181.9,187.8,190.9,175.2,190.9"/>
	<path class="st1" d="M129.7,153.8c-6.7,0-12.2,6.3-12.2,14c0,7.8,5.5,14.1,12.2,14.1c6.7,0,12.1-6.3,12.1-14.1
		C141.8,160.1,136.4,153.8,129.7,153.8 M129.7,191.7c-12.8,0-22.5-10.3-22.5-23.9c0-13.6,9.7-23.8,22.5-23.8
		c12.8,0,22.4,10.2,22.4,23.8C152.1,181.4,142.5,191.7,129.7,191.7"/>
	<path class="st1" d="M80.2,153.8c-6.7,0-12.2,6.3-12.2,14c0,7.8,5.5,14.1,12.2,14.1c6.7,0,12.1-6.3,12.1-14.1
		C92.4,160.1,86.9,153.8,80.2,153.8 M80.2,191.7c-12.8,0-22.5-10.3-22.5-23.9c0-13.6,9.7-23.8,22.5-23.8c12.8,0,22.4,10.2,22.4,23.8
		C102.7,181.4,93,191.7,80.2,191.7"/>
</g>
<polygon class="st1" points="147.9,243 136.3,243 119.9,214.3 119.9,243 109.6,243 109.6,197.1 121.2,197.1 137.5,225.8 
	137.5,197.1 147.9,197.1 "/>
<polygon class="st1" points="196.7,243 183.4,243 170.2,224 166.9,227.4 166.9,243 156.6,243 156.6,197.1 166.9,197.1 166.9,213.4 
	182.1,197.1 194,197.1 196.3,197.1 177.4,216.5 "/>
<g>
	<path class="st1" d="M32.2,214.4h11c2.4,0,4.2-1.7,4.2-3.9c0-2.4-1.6-3.9-4.2-3.9h-11V214.4z M32.2,233.4h11c3.6,0,5.5-1.6,5.5-4.6
		c0-4-3.1-4.8-5.6-4.8H32.2V233.4z M44.3,243H22v-45.9h21.2c9,0,14.2,4.7,14.2,12.9c0,3.4-1.3,6.3-3.6,8.5c3.4,2.3,5.3,6,5.3,10.6
		C59.1,237.5,53.3,243,44.3,243"/>
</g>
<path class="st1" d="M77.8,224.5h9.7l-4.8-14.2L77.8,224.5z M104.7,243H93.8l-3-8.8H74.6l-3,8.8H60.7l16-45.9h11.9L104.7,243z"/>
<g>
	<path class="st1" d="M160.4,15.9c0,0-6.5,4.8-8,8.2c-2.1,4.9,0.8,10.8,0.8,10.8s6.3-2.4,7.9-8C162.3,22.9,160.4,15.9,160.4,15.9"/>
	<path class="st1" d="M168.1,33c0,0-8,0.7-11.1,2.9c-4.4,3.1-4.9,9.7-4.9,9.7s6.7,1.1,10.9-2.9C166.1,39.9,168.1,33,168.1,33"/>
	<path class="st1" d="M164,48.2c0,0-8.1-0.5-11.4,1.1c-4.8,2.4-6.4,8.8-6.4,8.8s6.4,2.2,11.2-1.1C160.9,54.7,164,48.2,164,48.2"/>
	<path class="st1" d="M143.6,23.6c0,0,5.4,6,6.2,9.6c1.1,5.3-3,10.5-3,10.5s-5.7-3.7-6.1-9.4C140.4,30,143.6,23.6,143.6,23.6"/>
	<path class="st1" d="M136.5,37.7c0,0,6.5,4.8,8,8.2c2.1,4.9-0.8,10.8-0.8,10.8s-6.3-2.4-7.9-8C134.6,44.7,136.5,37.7,136.5,37.7"/>
	<path class="st1" d="M160.3,60.9c0,0-7.9-1.5-11.5-0.2c-5.1,1.9-7.3,8.1-7.3,8.1s6.1,2.9,11.3,0.2
		C156.5,67.1,160.3,60.9,160.3,60.9"/>
	<path class="st1" d="M130.3,49.7c0,0,6.9,4.2,8.7,7.5c2.6,4.7,0.1,10.9,0.1,10.9s-6.5-1.9-8.6-7.3
		C129.1,56.8,130.3,49.7,130.3,49.7"/>
	<path class="st1" d="M57,15.9c0,0,6.5,4.8,8,8.2c2.1,4.9-0.8,10.8-0.8,10.8s-6.3-2.4-7.9-8C55.1,22.9,57,15.9,57,15.9"/>
	<path class="st1" d="M49.4,33c0,0,8,0.7,11.1,2.9c4.4,3.1,4.9,9.7,4.9,9.7s-6.7,1.1-10.9-2.9C51.3,39.9,49.4,33,49.4,33"/>
	<path class="st1" d="M53.4,48.2c0,0,8.1-0.5,11.4,1.1c4.8,2.4,6.4,8.8,6.4,8.8s-6.4,2.2-11.2-1.1C56.5,54.7,53.4,48.2,53.4,48.2"/>
	<path class="st1" d="M73.8,23.6c0,0-5.4,6-6.2,9.6c-1.1,5.3,3,10.5,3,10.5s5.7-3.7,6.1-9.4C77,30,73.8,23.6,73.8,23.6"/>
	<path class="st1" d="M80.9,37.7c0,0-6.5,4.8-8,8.2c-2.1,4.9,0.8,10.8,0.8,10.8s6.3-2.4,7.9-8C82.8,44.7,80.9,37.7,80.9,37.7"/>
	<path class="st1" d="M57.1,60.9c0,0,7.9-1.5,11.5-0.2c5.1,1.9,7.3,8.1,7.3,8.1s-6.1,2.9-11.3,0.2C60.9,67.1,57.1,60.9,57.1,60.9"/>
	<path class="st1" d="M87.1,49.7c0,0-6.9,4.2-8.7,7.5c-2.6,4.7-0.1,10.9-0.1,10.9s6.5-1.9,8.6-7.3C88.3,56.8,87.1,49.7,87.1,49.7"/>
	<path class="st1" d="M12.9,61.1c48.8,5,70.2,24.8,77.3,31.7C68.1,92,42.6,81.4,12.9,61.1"/>
	<path class="st1" d="M203.9,61.1c-48.8,5-70.2,24.8-77.3,31.7C148.7,92,174.2,81.4,203.9,61.1"/>
	<path class="st1" d="M107.8,0c0,0,4.7,7.2,4.9,11.2c0.3,5.7-4.9,10.5-4.9,10.5s-5.4-4.8-4.8-11C103.4,6.2,107.8,0,107.8,0"/>
	<path class="st1" d="M93.8,14.4c0,0,7.7,3.8,9.9,7.1c3.2,4.8,1.2,11.5,1.2,11.5s-7.1-1.4-9.8-7C93.2,22.1,93.8,14.4,93.8,14.4"/>
	<path class="st1" d="M92.5,31.9c0,0,8.3,2.3,11.1,5.2c4,4.1,3.3,11.1,3.3,11.1s-7.2-0.1-10.9-5.1C93.2,39.5,92.5,31.9,92.5,31.9"/>
	<path class="st1" d="M122,14.1c0,0-7.7,3.9-9.8,7.3c-3.1,4.8-1,11.6-1,11.6s7.1-1.5,9.7-7.1C122.7,21.8,122,14.1,122,14.1"/>
	<path class="st1" d="M124.2,31.5c0,0-8.3,2.3-11.1,5.1c-4,4.1-3.3,11.1-3.3,11.1s7.2,0,10.9-5C123.4,39.1,124.2,31.5,124.2,31.5"/>
	<path class="st1" d="M91.3,46.2c0,0,8.5,1.3,11.6,3.8c4.4,3.6,4.5,10.7,4.5,10.7S100.2,61.5,96,57C92.9,53.7,91.3,46.2,91.3,46.2"
		/>
	<path class="st1" d="M126.1,45.8c0,0-8.5,1.6-11.5,4.2c-4.3,3.8-4.3,10.8-4.3,10.8s7.2,0.6,11.3-4.1
		C124.6,53.4,126.1,45.8,126.1,45.8"/>
	<path class="st1" d="M90.5,61.3c0,0,8.6,0.1,12,2.2c4.9,3,6,10,6,10s-7,1.8-11.8-2.1C93.2,68.4,90.5,61.3,90.5,61.3"/>
	<path class="st1" d="M126.4,61.3c0,0-8.6,0.1-12,2.2c-4.9,3-6,10-6,10s7,1.8,11.8-2.1C123.7,68.4,126.4,61.3,126.4,61.3"/>
	<path class="st1" d="M91.6,74.4c0,0,8.6,0.1,12,2.2c4.9,3,6,10,6,10s-7,1.8-11.8-2.1C94.2,81.6,91.6,74.4,91.6,74.4"/>
	<path class="st1" d="M126.4,74.4c0,0-8.6,0.1-12,2.2c-4.9,3-6,10-6,10s7,1.8,11.8-2.1C123.7,81.6,126.4,74.4,126.4,74.4"/>
</g>
</svg>
